<svg width="430" height="431" viewBox="0 0 430 431" fill="none" xmlns="http://www.w3.org/2000/svg">
<path d="M171.9 324.2V107.2" stroke="#121331" stroke-width="12" stroke-miterlimit="10" stroke-linecap="round" stroke-linejoin="round"/>
<path d="M171.9 280.9L257.1 241.2C270.1 235.1 278.5 222 278.5 207.6V166.1" stroke="#121331" stroke-width="12" stroke-miterlimit="10" stroke-linecap="round" stroke-linejoin="round"/>
<path d="M278.4 166.1C292.704 166.1 304.3 154.504 304.3 140.2C304.3 125.896 292.704 114.3 278.4 114.3C264.096 114.3 252.5 125.896 252.5 140.2C252.5 154.504 264.096 166.1 278.4 166.1Z" stroke="#08A88A" stroke-width="12" stroke-miterlimit="10" stroke-linecap="round" stroke-linejoin="round"/>
<path d="M171.9 107.3C186.204 107.3 197.8 95.7042 197.8 81.4C197.8 67.0958 186.204 55.5 171.9 55.5C157.596 55.5 146 67.0958 146 81.4C146 95.7042 157.596 107.3 171.9 107.3Z" stroke="#08A88A" stroke-width="12" stroke-miterlimit="10" stroke-linecap="round" stroke-linejoin="round"/>
<path d="M171.9 376C186.204 376 197.8 364.404 197.8 350.1C197.8 335.796 186.204 324.2 171.9 324.2C157.596 324.2 146 335.796 146 350.1C146 364.404 157.596 376 171.9 376Z" stroke="#08A88A" stroke-width="12" stroke-miterlimit="10" stroke-linecap="round" stroke-linejoin="round"/>
</svg>
